<svg xmlns="http://www.w3.org/2000/svg" width="740.295" height="681.277" viewBox="0 0 740.295 681.277"><g transform="translate(-7303.114 -403.984)"><path d="M7661.549,524.851c-2.133,0-45.516,5.689-45.516,5.689l-17.779,47.649-106.677,20.624-22.758-20.624-4.978-53.339-35.559-10.668-4.267,23.469-103.121,27.736-17.78,36.981,47.649,73.963,88.9-83.208L7499.4,610.9l-7.823,21.335-27.736,78.23-95.3,109.522-61.873,36.27,9.957,88.186,66.14,31.292,12.8,78.23,32.714,31.292,23.469-25.6-12.09-21.335,51.916-31.292V975.74l-11.379-12.8,7.823-12.8,23.469,8.534,37.692-39.115,71.118-4.978,14.935,17.068,22.758-24.891,51.916-59.028-17.068-57.606h-31.292l-3.556-24.18h16.357V747.451l32.714,11.379,14.224-20.624-46.938-34.137,13.512-24.891s28.032,4.837,28.281,4.339,30.748-15.007,30.748-15.007l23.469,10.668,2.059-4.625-25.527-18.133,28.447-9.957,5.689,22.047,14.935-15.646-20.624-24.18-74.674,7.823v-12.09h49.783l-3.556-13.512-64.718-32.714-29.158,36.27-9.245-6.4,30.581-52.627Z" fill="#025754"/><path d="M7628.124,522.007l36.981-14.935,9.957-41.96-56.895-5.689-20.625-23.469L7575.5,473.646Z" fill="#025754"/><path d="M7697.063,462.251l-14.243,52.117,12.3,28.486h38.845l-2.589,24.6,64.741,48.879s7.445-33.018,7.445-33.989,16.509-10.035,16.509-10.035l22.983,12.3s11.33-15.214,11.33-14.243-4.208-17.8-4.208-17.8l-30.1,4.532-12.625-17.48,12.625-47.585s-22.659-9.064-22.659-8.093-16.185,30.428-16.185,30.428l-24.6-24.278,10.035-11.653s7.446,6.15,9.064,5.5,14.243-21.688,14.243-21.688l35.608,11.653,3.884-18.775,20.717-5.179,2.266-21.688h-21.688l-18.775-24.278-19.1,11.33s-21.365,5.827-21.041,4.208,0,12.948,0,12.948-11.33,22.336-12.3,22.659-25.573,12.3-25.573,12.3Z" fill="#025754"/><path d="M7913.735,572.71l-4.98,8.811,10.343,4.98,2.107,9.96,18.58,14.557,6.512,14.557s6.321-6.129,6.321-6.9.958-24.9.958-24.9l-19.729-19.346-6.7,4.6Z" fill="#025754"/><path d="M8016.209,668.289l3.64,6.512-2.107,9.96,11.684,3.256,8.619,10.918,5.363-4.6-21.261-30.647Z" fill="#025754"/><path d="M7989.968,688.209l2.107,13.216,18.963-8.045Z" fill="#025754"/><path d="M8022.147,711.577s11.492,1.149,11.3,1.724,0,14.174,0,14.174l-7.853,2.107-6.7-9.577Z" fill="#025754"/><path d="M7959.322,744.714l-17.813,9.769,6.9,3.639,16.856-7.853Z" fill="#025754"/><path d="M7887.3,758.122c.575-.383,20.3-12.067,20.878-12.067s7.662-1.149,7.662-1.149l11.875-36.01,13.408-20.686,10.917-9.577-10.917-4.022-4.98,9.386L7918.907,697.4l-10.727,18.58-8.428,25.092-16.281,14.557S7886.728,758.5,7887.3,758.122Z" fill="#025754"/><path d="M7841.143,692.481l12.451-9.96,13.695,2.49v5.229l-5.727,2.241v30.877h-9.711l-1.743-22.41Z" transform="translate(-1)" fill="#025754"/><path d="M7817.986,723.357V715.14l-17.43-1.494-17.679,19.173-16.435,10.209,3.486,3.984,9.462-3.984s4.98,6.474,3.486,6.474-5.478,6.474-6.225,6.225S7766.442,751,7766.442,751l5.727,10.956h9.462l13.2-16.683s7.222-21.912,7.968-21.912Z" transform="translate(-1)" fill="#025754"/></g></svg>