<svg xmlns="http://www.w3.org/2000/svg" width="430.4" height="478.472" viewBox="0 0 430.4 478.472"><g transform="translate(-8262.521 -549.457)"><path d="M8289.027,715.237l64.7-37.289,43.579,33.246,14.376-112.317h12.131L8481.764,707.6l28.754,12.58L8505.575,829.8l13.928,33.7-8.985,47.173-34.594,2.7-9.435-21.116-31,51.217-41.782-45.376-56.158,48.97-36.392-26.507-38.637-96.144h58.854l-4.942-34.594s13.029-13.478,12.58-14.377,36.391,14.377,36.391,14.377l7.188-14.377L8324.07,731.86l-15.275,12.13Z" fill="#025754"/><path d="M8523.1,724.672l15.275-101.535,36.391-73.68,57.956,68.289-45.376,130.288,65.144,26.956L8692.921,797l-3.145,77.724L8655.183,956.5l-2.7,57.507-50.318,5.391-4.492,8.536-51.217-29.2-15.725-64.246V863.047l-17.072-48.072Z" fill="#025754"/></g></svg>