<svg xmlns="http://www.w3.org/2000/svg" width="589.442" height="403.894" viewBox="0 0 589.442 403.894"><path d="M6032.8,502.733l100.636,57.507,36.84,13.927,9.884,25.159L6152.3,613.7l11.231,57.057,26.507-16.174,24.26,40.434,75.927-3.594,6.739,34.145-88.955-6.29-33.246,22.913-29.2,27.855,17.971,41.333v39.536H6110.07l-5.391,25.159-47.623-13.029,9.435-27.405L6027.854,828l-81.767-22.464,15.724-82.216h-90.752l-16.174,35.492-100.636-26.956,2.246-32.347-35.043-19.319-13.927-46.275,39.086-17.072,18.87-36.391,58.4,6.739,15.725-31.9,38.637-55.26,39.536,31.9,28.3-17.522,45.825-42.231Z" transform="translate(-5707.524 -472.183)" fill="#025754"/></svg>